<svg height="186" preserveAspectRatio="xMidYMid" viewBox="0 0 217 186" width="217" xmlns="http://www.w3.org/2000/svg"><g fill-rule="evenodd"><g fill="#fbb713"><path d="m92.758 164.788h-16.978c-3.273 0-5.927 1.519-5.927 3.394 0 1.874 2.654 3.394 5.927 3.394h.79c3.274 0 5.927 1.519 5.927 3.393s-2.653 3.394-5.927 3.394h-36.496c-3.274 0-5.928 1.519-5.928 3.394s2.654 3.395 5.928 3.395h43.859 89.648c3.274 0 5.927-1.52 5.927-3.395s-2.653-3.394-5.927-3.394h-10.129c-3.273 0-5.926-1.52-5.926-3.394s2.653-3.393 5.926-3.393h39.782c3.274 0 5.928-1.52 5.928-3.394 0-1.875-2.654-3.394-5.928-3.394h-2.969z"/><path d="m197.029 186.06c-2.744 0-4.969-1.628-4.969-3.637s2.225-3.638 4.969-3.638h15.228c2.744 0 4.969 1.629 4.969 3.638s-2.225 3.637-4.969 3.637z"/><path d="m4.966 186.06c-2.744 0-4.969-1.628-4.969-3.637s2.225-3.638 4.969-3.638h15.228c2.745 0 4.969 1.629 4.969 3.638s-2.224 3.637-4.969 3.637z"/></g><path d="m144.147.007h-39.264c-5.824 0-10.296 4.775-10.404 10.598-.104 5.652-4.72 10.203-10.399 10.203h-25.674c-4.259 0-8.342 1.692-11.353 4.703 0 0-24.578 24.576-24.578 24.576-3.011 3.012-4.703 7.095-4.703 11.354v99.779c0 5.744 4.657 10.401 10.401 10.401h115.974c5.745 0 10.401-4.657 10.401-10.401v-137.292-3.12-10.4c0-5.745-4.656-10.401-10.401-10.401zm-6.761 20.801h-22.882c-2.298 0-4.161-1.862-4.161-4.16 0-2.297 1.863-4.161 4.161-4.161h22.882c2.298 0 4.161 1.864 4.161 4.161 0 2.298-1.863 4.16-4.161 4.16z" fill="#142a3b"/><path d="m49.045 27.049h25.674c4.271 0 7.939-2.577 9.54-6.259-.061.002-.118.019-.179.019h-25.674c-4.259 0-8.342 1.691-11.353 4.702 0 0-2.153 2.152-2.153 2.152 1.347-.361 2.726-.614 4.145-.614z" fill="#020403" opacity=".3"/><path d="m144.147.007h-39.265c-4.271 0-7.796 2.58-9.425 6.246.022 0 .042-.006.064-.006h39.265c5.745 0 10.401 4.658 10.401 10.4v10.402 3.121 137.291c0 1.473-.315 2.872-.868 4.143 5.663-.094 10.229-4.699 10.229-10.384v-137.292-3.119-10.402c0-5.744-4.656-10.4-10.401-10.4z" fill="#020403" opacity=".3"/><path d="m52.183 24.483s-28.878 28-28.878 28c-.545.529-1.416.516-1.945-.03 0 0-9.165-9.452-9.165-9.452-.529-.545-.516-1.415.029-1.945 0 0 28.879-28.001 28.879-28.001.546-.528 1.416-.515 1.945.031 0 0 9.165 9.452 9.165 9.452.529.545.515 1.415-.03 1.945z" fill="#fbb713"/><path d="m50.184 20.444s-5.107-5.266-5.107-5.266c-1.649-1.701-4.366-1.743-6.067-.094 0 0-.136.133-.136.133s5.068 5.227 5.068 5.227c1.65 1.702 1.609 4.418-.092 6.068 0 0-24.557 23.809-24.557 23.809s.038.039.038.039c1.65 1.701 4.366 1.743 6.067.094 0 0 24.693-23.942 24.693-23.942 1.701-1.65 1.742-4.366.093-6.068z" fill="#020403" opacity=".3"/><path d="m59.856 133.699c-.812-.813-.812-2.129 0-2.943 0 0 62.148-62.145 62.148-62.145.812-.812 2.129-.812 2.942 0 .812.813.812 2.13 0 2.942 0 0-62.148 62.146-62.148 62.146-.813.812-2.129.812-2.942 0z" fill="#020403" opacity=".3"/><path d="m124.946 133.699c.812-.813.812-2.129 0-2.943 0 0-62.148-62.145-62.148-62.145-.813-.812-2.129-.812-2.942 0-.812.813-.812 2.13 0 2.942 0 0 62.148 62.146 62.148 62.146.812.812 2.129.812 2.942 0z" fill="#020403" opacity=".3"/><path d="m53.615 133.699c-.812-.813-.812-2.129 0-2.943 0 0 62.148-62.145 62.148-62.145.812-.812 2.13-.812 2.942 0 .813.813.813 2.13 0 2.942 0 0-62.148 62.146-62.148 62.146-.812.812-2.13.812-2.942 0z" fill="#ededed"/><path d="m118.705 133.699c.813-.813.813-2.129 0-2.943 0 0-62.148-62.145-62.148-62.145-.812-.812-2.13-.812-2.942 0-.812.813-.812 2.13 0 2.942 0 0 62.148 62.146 62.148 62.146.812.812 2.13.812 2.942 0z" fill="#ededed"/></g></svg>