<svg fill="none" height="117" viewBox="0 0 119 117" width="119" xmlns="http://www.w3.org/2000/svg" xmlns:xlink="http://www.w3.org/1999/xlink"><filter id="a" color-interpolation-filters="sRGB" filterUnits="userSpaceOnUse" height="21.9746" width="56.3695" x=".230469" y="1.02539"><feFlood flood-opacity="0" result="BackgroundImageFix"/><feBlend in="SourceGraphic" in2="BackgroundImageFix" mode="normal" result="shape"/><feGaussianBlur result="effect1_foregroundBlur" stdDeviation="1"/></filter><filter id="b" color-interpolation-filters="sRGB" filterUnits="userSpaceOnUse" height="84.5952" width="66.3522" x="44.6235" y="11.8801"><feFlood flood-opacity="0" result="BackgroundImageFix"/><feBlend in="SourceGraphic" in2="BackgroundImageFix" mode="normal" result="shape"/><feColorMatrix in="SourceAlpha" result="hardAlpha" type="matrix" values="0 0 0 0 0 0 0 0 0 0 0 0 0 0 0 0 0 0 127 0"/><feOffset dy="3"/><feGaussianBlur stdDeviation="2"/><feComposite in2="hardAlpha" k2="-1" k3="1" operator="arithmetic"/><feColorMatrix type="matrix" values="0 0 0 0 0 0 0 0 0 0 0 0 0 0 0 0 0 0 0.25 0"/><feBlend in2="shape" mode="normal" result="effect1_innerShadow"/></filter><filter id="c" color-interpolation-filters="sRGB" filterUnits="userSpaceOnUse" height="47.4819" width="67.6171" x="40.6235" y="16.5"><feFlood flood-opacity="0" result="BackgroundImageFix"/><feColorMatrix in="SourceAlpha" type="matrix" values="0 0 0 0 0 0 0 0 0 0 0 0 0 0 0 0 0 0 127 0"/><feOffset dy="1"/><feGaussianBlur stdDeviation="2"/><feColorMatrix type="matrix" values="0 0 0 0 0 0 0 0 0 0 0 0 0 0 0 0 0 0 0.25 0"/><feBlend in2="BackgroundImageFix" mode="normal" result="effect1_dropShadow"/><feBlend in="SourceGraphic" in2="effect1_dropShadow" mode="normal" result="shape"/><feColorMatrix in="SourceAlpha" result="hardAlpha" type="matrix" values="0 0 0 0 0 0 0 0 0 0 0 0 0 0 0 0 0 0 127 0"/><feOffset dy="3"/><feGaussianBlur stdDeviation="2"/><feComposite in2="hardAlpha" k2="-1" k3="1" operator="arithmetic"/><feColorMatrix type="matrix" values="0 0 0 0 0 0 0 0 0 0 0 0 0 0 0 0 0 0 0.25 0"/><feBlend in2="shape" mode="normal" result="effect2_innerShadow"/></filter><filter id="d" color-interpolation-filters="sRGB" filterUnits="userSpaceOnUse" height="36.4607" width="42.8251" x="43.6235" y="18.5"><feFlood flood-opacity="0" result="BackgroundImageFix"/><feBlend in="SourceGraphic" in2="BackgroundImageFix" mode="normal" result="shape"/><feGaussianBlur result="effect1_foregroundBlur" stdDeviation=".5"/></filter><filter id="e" color-interpolation-filters="sRGB" filterUnits="userSpaceOnUse" height="13" width="9.5" x="107" y="102.5"><feFlood flood-opacity="0" result="BackgroundImageFix"/><feBlend in="SourceGraphic" in2="BackgroundImageFix" mode="normal" result="shape"/><feColorMatrix in="SourceAlpha" result="hardAlpha" type="matrix" values="0 0 0 0 0 0 0 0 0 0 0 0 0 0 0 0 0 0 127 0"/><feOffset dy="3"/><feGaussianBlur stdDeviation="2"/><feComposite in2="hardAlpha" k2="-1" k3="1" operator="arithmetic"/><feColorMatrix type="matrix" values="0 0 0 0 0 0 0 0 0 0 0 0 0 0 0 0 0 0 0.25 0"/><feBlend in2="shape" mode="normal" result="effect1_innerShadow"/></filter><filter id="f" color-interpolation-filters="sRGB" filterUnits="userSpaceOnUse" height="17.5" width="12.5" x="106.5" y="99"><feFlood flood-opacity="0" result="BackgroundImageFix"/><feBlend in="SourceGraphic" in2="BackgroundImageFix" mode="normal" result="shape"/><feGaussianBlur result="effect1_foregroundBlur" stdDeviation="2"/></filter><filter id="g" color-interpolation-filters="sRGB" filterUnits="userSpaceOnUse" height="9.2" width="9.5" x="104.5" y="95.8"><feFlood flood-opacity="0" result="BackgroundImageFix"/><feBlend in="SourceGraphic" in2="BackgroundImageFix" mode="normal" result="shape"/><feColorMatrix in="SourceAlpha" result="hardAlpha" type="matrix" values="0 0 0 0 0 0 0 0 0 0 0 0 0 0 0 0 0 0 127 0"/><feOffset/><feGaussianBlur stdDeviation="1.5"/><feComposite in2="hardAlpha" k2="-1" k3="1" operator="arithmetic"/><feColorMatrix type="matrix" values="0 0 0 0 0 0 0 0 0 0 0 0 0 0 0 0 0 0 0.25 0"/><feBlend in2="shape" mode="normal" result="effect1_innerShadow"/></filter><filter id="h" color-interpolation-filters="sRGB" filterUnits="userSpaceOnUse" height="27" width="13.3731" x="65.5996" y="58"><feFlood flood-opacity="0" result="BackgroundImageFix"/><feBlend in="SourceGraphic" in2="BackgroundImageFix" mode="normal" result="shape"/><feColorMatrix in="SourceAlpha" result="hardAlpha" type="matrix" values="0 0 0 0 0 0 0 0 0 0 0 0 0 0 0 0 0 0 127 0"/><feOffset dy="1"/><feGaussianBlur stdDeviation="2"/><feComposite in2="hardAlpha" k2="-1" k3="1" operator="arithmetic"/><feColorMatrix type="matrix" values="0 0 0 0 0 0 0 0 0 0 0 0 0 0 0 0 0 0 0.25 0"/><feBlend in2="shape" mode="normal" result="effect1_innerShadow"/></filter><filter id="i" color-interpolation-filters="sRGB" filterUnits="userSpaceOnUse" height="37.554" width="21.4447" x="91.4131" y="55.4459"><feFlood flood-opacity="0" result="BackgroundImageFix"/><feBlend in="SourceGraphic" in2="BackgroundImageFix" mode="normal" result="shape"/><feGaussianBlur result="effect1_foregroundBlur" stdDeviation="1"/></filter><filter id="j" color-interpolation-filters="sRGB" filterUnits="userSpaceOnUse" height="39.4957" width="22.0428" x="82.4692" y="56.7292"><feFlood flood-opacity="0" result="BackgroundImageFix"/><feBlend in="SourceGraphic" in2="BackgroundImageFix" mode="normal" result="shape"/><feGaussianBlur result="effect1_foregroundBlur" stdDeviation="1"/></filter><filter id="k" color-interpolation-filters="sRGB" filterUnits="userSpaceOnUse" height="11.5" width="10" x="50" y="17"><feFlood flood-opacity="0" result="BackgroundImageFix"/><feBlend in="SourceGraphic" in2="BackgroundImageFix" mode="normal" result="shape"/><feGaussianBlur result="effect1_foregroundBlur" stdDeviation="1"/></filter><filter id="l" color-interpolation-filters="sRGB" filterUnits="userSpaceOnUse" height="8" width="5.66501" x="99.8999" y="43"><feFlood flood-opacity="0" result="BackgroundImageFix"/><feBlend in="SourceGraphic" in2="BackgroundImageFix" mode="normal" result="shape"/><feGaussianBlur result="effect1_foregroundBlur" stdDeviation="1"/></filter><linearGradient id="m" gradientUnits="userSpaceOnUse" x1="27.96" x2="19.4615" y1="-5.49764" y2="15.3912"><stop offset=".220994" stop-color="#2e2d2d"/><stop offset=".580214" stop-color="#a09e9e"/><stop offset=".989218" stop-color="#2e2d2d"/></linearGradient><linearGradient id="n" gradientUnits="userSpaceOnUse" x1="27.96" x2="19.4615" y1="-5.49764" y2="15.3912"><stop offset=".220994" stop-color="#c4c4c4"/><stop offset=".580214" stop-color="#fff"/><stop offset=".989218" stop-color="#c4c4c4"/></linearGradient><linearGradient id="o"><stop offset=".105926" stop-color="#4f4f4f"/><stop offset="1"/></linearGradient><linearGradient id="p" gradientUnits="userSpaceOnUse" x1="93.5" x2="72.5" xlink:href="#o" y1="29" y2="96"/><linearGradient id="q" gradientUnits="userSpaceOnUse" x1="75" x2="87" y1="19" y2="91.5"><stop offset=".167681" stop-color="#4f4f4f"/><stop offset=".674573" stop-color="#2e2d2d"/></linearGradient><linearGradient id="r" gradientUnits="userSpaceOnUse" x1="65.5" x2="65.5" y1="19.5" y2="55.5"><stop offset="0" stop-color="#2e2d2d"/><stop offset="1" stop-color="#2e2d2d" stop-opacity="0"/></linearGradient><linearGradient id="s" gradientUnits="userSpaceOnUse" x1="75.75" x2="76" y1="55.5" y2="99"><stop offset="0" stop-color="#2e2d2d"/><stop offset=".900553" stop-color="#2e2d2d"/><stop offset="1"/></linearGradient><linearGradient id="t"><stop offset=".0883978" stop-color="#2e2d2d"/><stop offset=".712707" stop-color="#fff"/><stop offset="1" stop-color="#4f4f4f"/></linearGradient><linearGradient id="u" gradientUnits="userSpaceOnUse" x1="113.5" x2="101.695" xlink:href="#t" y1="88" y2="91.2217"/><linearGradient id="v" gradientUnits="userSpaceOnUse" x1="116" x2="108.393" xlink:href="#o" y1="107" y2="111.21"/><linearGradient id="w" gradientUnits="userSpaceOnUse" x1="115.583" x2="103.08" xlink:href="#t" y1="93.0942" y2="96.4219"/><linearGradient id="x" gradientUnits="userSpaceOnUse" x1="72.2996" x2="77.5" y1="58" y2="87.5"><stop offset="0" stop-color="#828282"/><stop offset=".801105" stop-color="#f1edec"/><stop offset="1" stop-color="#2e2d2d"/></linearGradient><linearGradient id="y"><stop offset=".198895" stop-color="#2e2d2d"/><stop offset=".805766" stop-color="#c4c4c4"/><stop offset="1" stop-color="#4f4f4f"/></linearGradient><linearGradient id="z" gradientUnits="userSpaceOnUse" x1="15.9652" x2="10.3113" xlink:href="#y" y1="-1.83917" y2="1.73624"/><linearGradient id="A" gradientUnits="userSpaceOnUse" x1="22.0731" x2="14.9712" xlink:href="#y" y1="-1.75246" y2=".566228"/><linearGradient id="B" gradientUnits="userSpaceOnUse" x1="31.1754" x2="23.6285" xlink:href="#y" y1="-.61731" y2="-.535968"/><linearGradient id="C" gradientUnits="userSpaceOnUse" x1="38.8427" x2="31.417" xlink:href="#y" y1="1.18195" y2=".690641"/><linearGradient id="D" gradientUnits="userSpaceOnUse" x1="50.7389" x2="44.1906" xlink:href="#y" y1="4.35797" y2=".325916"/><linearGradient id="E" gradientUnits="userSpaceOnUse" x1="59.7591" x2="50.3986" xlink:href="#y" y1="10.417" y2="6.84498"/><path d="m2.72864 2.59616c.15457-.3664.52824-.58588.92559-.56999l22.80307.91212c1.0224.0409 2.0325.23848 2.995.58584l25.1477 9.07587-5.5 9.9-20.5231-12.2594c-1.3649-.8153-2.9045-1.29343-4.4912-1.3947l-20.49628-1.30828c-.3636-.02321-.68955-.24147-.83057-.57741-.69305-1.65091-.70557-2.76305-.03021-4.36405z" fill="url(#m)"/><g filter="url(#a)"><path d="m2.69139 3.57974c.20322-.34182.56549-.56946.96284-.55357l22.80307.91212c1.0224.0409 2.0325.23848 2.995.58584l25.1477 9.07587-4.6 7.4-21.427-12.76503c-1.3624-.81166-2.8984-1.28766-4.4811-1.38868l-20.50248-1.30867c-.3636-.02321-.68034-.24635-.85799-.56445-.65319-1.16963-.66876-.33588-.04004-1.39343z" fill="url(#n)"/></g><g filter="url(#b)"><path d="m54.4342 12.9032c.5731-1.0233 1.8997-1.3361 2.8696-.6766l9.9326 6.7542c.4976.3383 1.0853.5192 1.687.5192h4.9575c.7218 0 1.4194.2602 1.9648.7329l27.3593 23.7117c1.052.9114 1.339 2.4264.693 3.6591l-4.398 8.3963 11.361 32.1902c.357 1.0114-.147 2.1243-1.143 2.5226l-6.548 2.6191c-.949.3799-2.033-.0181-2.511-.9224l-17.1576-32.4608c-.3131-.5925-.9023-.9888-1.5691-1.0555l-32.6435-3.2643c-.7842-.0784-1.4492-.61-1.6984-1.3576l-2.8642-8.5927c-.1463-.4388-.1359-.9147.0293-1.3467l5.9116-15.4612c.211-.552.1672-1.169-.1198-1.6856l-1.5055-2.7099c-.3368-.6062-.3355-1.3435.0033-1.9485z" fill="url(#p)"/></g><g filter="url(#c)"><path d="m57.8417 23.5352c.1054-.0234.2087-.0553.3089-.0954l9.313-3.7252c.3543-.1418.7325-.2146 1.1141-.2146h5.3032c.7218 0 1.4194.2602 1.9648.7329l27.3593 23.7117c1.052.9114 1.339 2.4264.693 3.6591l-3.9449 7.5313c-.2859.5459-.8076.9294-1.4139 1.0397l-15.2624 2.775c-.1836.0334-.371.0409-.5568.0223l-33.4312-3.3431c-.7842-.0784-1.4492-.61-1.6984-1.3576l-2.8642-8.5927c-.1463-.4388-.1359-.9147.0293-1.3467l6.1529-16.0924c.0608-.159.1417-.3096.2407-.4482l.1236-.1731c1.434-2.0076 3.5596-3.4143 5.968-3.9495z" fill="url(#q)"/></g><g filter="url(#d)"><path d="m57.8417 23.5352c.1054-.0234.2087-.0553.3089-.0954l9.313-3.7252c.3543-.1418.7325-.2146 1.1141-.2146h5.3434c.6974 0 1.373.243 1.9107.6871l8.5274 7.0444c1.2082.9981 1.4446 2.7578.5428 4.0394l-7.2179 10.257c-.4217.5992-1.1371.9198-1.8649.8359l-10.9186-1.2599c-.5724-.066-1.1454.118-1.5723.5049l-13.0571 11.833c-1.0701.9697-2.7838.5204-3.2405-.8496l-2.3045-6.9136c-.1463-.4388-.1359-.9147.0293-1.3467l6.1529-16.0924c.0608-.159.1417-.3096.2407-.4482l.1236-.1731c1.434-2.0076 3.5596-3.4143 5.968-3.9495z" fill="url(#r)" fill-opacity=".5"/></g><path d="m52 56 18 1.5-3.1895 2.0731c-3.5866 2.3313-4.336 7.3745-1.9242 10.9075 1.2439 1.8221 2.6471 4.0052 4.1137 6.5194 1.2853 2.2034 2.2335 4.2719 2.9188 6.0075 1.0484 2.6553 3.8988 4.4131 6.6684 3.7207l15.3564-3.8391c.9094-.2273 1.8547.2074 2.2739 1.0459l2.5475 5.0951c.6088 1.2175-.1502 2.6743-1.4969 2.873l-24.2295 3.5748c-2.1162.3122-4.1966-.7563-5.1755-2.6582l-14.9576-29.0604c-.5817-1.1302-.7111-2.4396-.3619-3.6618l.4564-1.5975z" fill="#1f1f1f"/><path d="m51 55.5 18.5 2-6.2951 4.4066c-2.1036 1.4725-2.7498 4.2989-1.4953 6.5392l9.9428 17.7549c1.093 1.9518 3.3496 2.9401 5.5254 2.4198l17.8195-4.2611c.8851-.2117 1.8015.2009 2.2298 1.0039l1.9271 3.6133c.6537 1.2257-.1106 2.7282-1.4862 2.9217l-25.6513 3.6072c-2.1059.2961-4.1687-.7722-5.1419-2.6631l-14.9693-29.0831c-.5817-1.1302-.7111-2.4396-.3619-3.6618l.4564-1.5975z" fill="url(#s)"/><path d="m103 93.5 7.5-3 1.5 5.5-7 3z" fill="url(#u)"/><g filter="url(#e)"><path d="m107 105.5 7-3 2.5 10h-7z" fill="url(#v)"/></g><g filter="url(#f)"><path d="m110.5 104 2-1c1.887 3.835 2 5.5 2.5 9.5h-2c0-3.5-.334-5.476-2.5-8.5z" fill="#c4c4c4"/></g><g filter="url(#g)"><path d="m104.5 99 8-3.2 1.5 5.7-.5 1-5.5 2.5h-1.5z" fill="url(#w)"/></g><g filter="url(#h)"><path d="m69.2 58 6.2074 1.335c1.8124.3898 3.1195 1.9738 3.1581 3.8272l.4069 19.5325c.0149.7165-.5618 1.3053-1.2784 1.3053-.6724 0-1.2299-.5208-1.2756-1.1917l-1.2022-17.6321c-.1268-1.859-1.5204-3.3843-3.3604-3.6779l-6.2562-.9983c.4004-.5 1.4004-1 3.6004-2.5z" fill="url(#x)"/></g><path d="m15.8182 1.00002c1.6221-.005256 1.8182 1.04422 2.1818 1.56631h-.7273s-.7654-.99806-1.4545-.52211c-.5723.39525-.6393 1.05977-.7275 1.56631-.3634 2.08837.4093 4.88947.4093 4.88947-.2533.41317-.7727.33151-1.1364-.19059-.3636-.52209-.3636-4.17678-.3636-4.17678s.196-3.12735 1.8182-3.13261z" fill="url(#z)"/><path d="m20.8615 1.09241c1.5647.42804 2.1283 1.11736 2.3394 1.71759l-.8009-.03001s-1.026-.95596-1.8172-.68129c-.6571.22811-.8991.85062-1.1193 1.31524-.9078 1.91552-.4635 5.58606-.4635 5.58606-.3545.33053-.8332.11316-1.0442-.48707-.2111-.60023.3172-4.88707.3172-4.88707s1.0239-2.961481 2.5885-2.53345z" fill="url(#A)"/><path d="m29.1464 1.85414c1.3777.85645 1.7213 1.67788 1.7524 2.31337l-.759-.25714s-.7108-1.20886-1.5475-1.17122c-.6949.03125-1.1043.55892-1.4479.94145-1.4164 1.57709-2.1444 5.3194-2.1444 5.3194-.434.21573-.9689.13549-1-.5s1.9429-4.95578 1.9429-4.95578 1.8259-2.546528 3.2035-1.69008z" fill="url(#B)"/><path d="m36.5005 4.00001c1.5.49998 1.4689 1.98449 1.5 2.61998l-1-.37s-.1633-1.28761-1-1.24998c-.6948.03126-1.5153 1.40897-1.8589 1.7915-1.4164 1.5771-2.1444 5.31939-2.1444 5.31939-.434.2157-.9689.1355-1-.5s1.9429-4.95576 1.9429-4.95576 2.0604-3.1551 3.5604-2.65513z" fill="url(#C)"/><path d="m45.999 7c2.0009.49995 1.1929 2.29349 1.0006 2.89997l-.9992-.40008s.9994-.99995-.0006-1.49995-5.1569 2.75756-5.5305 3.11076c-1.4695 1.3892-3.8641 4.2384-3.8641 4.2384-.4819.051-.9553-.2107-.763-.8172.1924-.6065 3.5484-3.9678 3.5484-3.9678s4.6074-4.06405 6.6084-3.5641z" fill="url(#D)"/><path d="m53.9999 11.5001s.5-.0001 1.5.4999c0 0-.4997.6-1 .6-1-.5-3.6266 5.0469-4.0002 5.4001-1 2-1.5001 4.4999-1.5001 4.4999-.482.0509-.4999.0001-.7631-.8172-.2368-.6827.7632-3.6827.7632-3.6827s3.0003-6.5001 5.0002-6.5z" fill="url(#E)"/><g filter="url(#i)"><path d="m94 59 3.9998-1 10.6472 27.9374c.759 1.9905-.189 4.2249-2.148 5.0625l2.001-3.9999-10-27z" fill="#c4c4c4"/></g><g filter="url(#j)"><path d="m85.5005 60.0001-1.0002.4998 16.9307 31.7883c.209.3928.726.4952 1.069.2118l-14.4995-27.9999z" fill="#1f1f1f"/></g><g filter="url(#k)"><path d="m52 19 6 4c-3.3481 1.0143-5 2.5-6 3.5.5154-1.7719 1.3157-3.6975 0-7.5z" fill="#828282"/></g><g filter="url(#l)"><path d="m102.5 45h.3c1.5 1 .5 3-.5 4h-.4c1.1-1.5 2.1-2.5.6-4z" fill="#fff"/></g></svg>